<svg width="78" height="70" viewBox="0 0 78 70" fill="currentColor"
  xmlns="http://www.w3.org/2000/svg">
  <path
    d="M35.2427 50.7147L33.8284 52.1289L35.2427 53.5431L36.6569 52.1289L35.2427 50.7147ZM19.4809 34.9525L18.0667 33.5382L16.6524 34.9524L18.0666 36.3667L19.4809 34.9525ZM27.3142 27.1195L28.7284 25.7053L27.3143 24.2911L25.9 25.7053L27.3142 27.1195ZM35.2427 35.048L33.8284 36.4622L35.2426 37.8764L36.6568 36.4622L35.2427 35.048ZM43.1715 27.1195L44.5857 25.7053L43.1715 24.2911L41.7573 25.7053L43.1715 27.1195ZM51.0044 34.9525L52.4187 36.3667L53.8328 34.9525L52.4187 33.5383L51.0044 34.9525ZM74.6956 11.2617L76.1098 12.6759L77.5241 11.2616L76.1098 9.8474L74.6956 11.2617ZM66.8622 3.42871L68.2764 2.01446L66.8622 0.600321L65.448 2.0145L66.8622 3.42871ZM58.9338 11.3571L57.5197 12.7714L58.9339 14.1855L60.348 12.7714L58.9338 11.3571ZM51.0046 3.42871L52.4187 2.01442L51.0045 0.600357L49.5903 2.0145L51.0046 3.42871ZM43.0761 11.3571L41.6619 12.7714L43.0762 14.1855L44.4903 12.7714L43.0761 11.3571ZM35.2428 3.5242L36.6569 2.10995L35.2427 0.695824L33.8286 2.10998L35.2428 3.5242ZM3.71878 35.0478L2.30458 33.6336L0.890335 35.0478L2.30458 36.462L3.71878 35.0478ZM35.2428 66.5714L33.8286 67.9856L35.2428 69.3998L36.657 67.9856L35.2428 66.5714ZM66.7668 35.0478L68.181 36.462L69.5952 35.0478L68.1809 33.6335L66.7668 35.0478ZM58.8379 27.1193L57.4237 25.7051L56.0094 27.1194L57.4237 28.5336L58.8379 27.1193ZM35.2427 50.7147L36.6569 49.3005L20.8951 33.5383L19.4809 34.9525L18.0666 36.3667L33.8284 52.1289L35.2427 50.7147ZM19.4809 34.9525L20.895 36.3667L28.7284 28.5338L27.3142 27.1195L25.9 25.7053L18.0667 33.5382L19.4809 34.9525ZM27.3142 27.1195L25.9 28.5337L33.8284 36.4622L35.2427 35.048L36.6569 33.6338L28.7284 25.7053L27.3142 27.1195ZM35.2427 35.048L36.6568 36.4622L44.5857 28.5338L43.1715 27.1195L41.7573 25.7053L33.8285 33.6337L35.2427 35.048ZM43.1715 27.1195L41.7573 28.5337L49.5902 36.3667L51.0044 34.9525L52.4187 33.5383L44.5857 25.7053L43.1715 27.1195ZM51.0044 34.9525L49.5902 33.5383L33.8284 49.3005L35.2427 50.7147L36.6569 52.1289L52.4187 36.3667L51.0044 34.9525ZM74.6956 11.2617L76.1098 9.8474L68.2764 2.01446L66.8622 3.42871L65.4481 4.84296L73.2814 12.6759L74.6956 11.2617ZM66.8622 3.42871L65.448 2.0145L57.5196 9.94293L58.9338 11.3571L60.348 12.7714L68.2765 4.84292L66.8622 3.42871ZM58.9338 11.3571L60.348 9.94286L52.4187 2.01442L51.0046 3.42871L49.5904 4.843L57.5197 12.7714L58.9338 11.3571ZM51.0046 3.42871L49.5903 2.0145L41.6619 9.94293L43.0761 11.3571L44.4903 12.7714L52.4188 4.84292L51.0046 3.42871ZM43.0761 11.3571L44.4903 9.94289L36.6569 2.10995L35.2428 3.5242L33.8286 4.93846L41.6619 12.7714L43.0761 11.3571ZM35.2428 3.5242L33.8286 2.10998L2.30458 33.6336L3.71878 35.0478L5.13298 36.462L36.657 4.93843L35.2428 3.5242ZM3.71878 35.0478L2.30458 36.462L33.8286 67.9856L35.2428 66.5714L36.657 65.1571L5.13298 33.6336L3.71878 35.0478ZM35.2428 66.5714L36.657 67.9856L68.181 36.462L66.7668 35.0478L65.3525 33.6336L33.8286 65.1571L35.2428 66.5714ZM66.7668 35.0478L68.1809 33.6335L60.2521 25.7051L58.8379 27.1193L57.4237 28.5336L65.3526 36.462L66.7668 35.0478ZM58.8379 27.1193L60.2521 28.5336L76.1098 12.6759L74.6956 11.2617L73.2814 9.84744L57.4237 25.7051L58.8379 27.1193Z" />
</svg>