<svg width="117" height="29" viewBox="0 0 117 29" fill="none" xmlns="http://www.w3.org/2000/svg">
  <path d="M116.75 19.2984L116.605 19.6371C115.961 22.5412 112.912 24.2088 110.261 23.3622C109.981 23.2726 109.511 23.0619 109.246 22.9107C109.161 22.8617 109.064 22.7278 108.956 22.6849L108.92 23.174L108.739 23.3622H106.636L106.455 23.174V9.77871L106.636 9.59058H108.739C108.771 9.641 108.92 9.75463 108.92 9.77871V14.0306C109.072 14.0306 109.187 13.8778 109.319 13.8048C109.863 13.5023 110.294 13.3924 110.914 13.2781C110.941 13.2728 110.96 13.2066 110.986 13.2028C111.749 13.105 112.51 13.2359 113.161 13.4286C115.099 14.0028 116.458 15.6049 116.678 17.6805L116.75 17.7181V19.2984ZM111.204 15.7615C111.177 15.7652 111.16 15.8299 111.131 15.8367C111.065 15.8518 110.974 15.8194 110.914 15.8367C110.82 15.8631 110.517 16.0685 110.406 16.1377C109.997 16.3943 109.706 16.6931 109.5 17.1537C109.452 17.2628 109.452 17.3162 109.428 17.3794C109.41 17.4246 109.291 17.5706 109.283 17.6052C109.266 17.6677 109.297 17.7625 109.283 17.831C109.276 17.8603 109.214 17.8784 109.21 17.9062C109.183 18.1041 109.183 18.6866 109.21 18.8845C109.214 18.9124 109.277 18.9304 109.283 18.9598C109.31 19.1028 109.319 19.2661 109.355 19.4113C109.811 20.4145 110.915 21.1685 112.001 21.0293C112.028 21.0255 112.046 20.9593 112.074 20.954C112.162 20.9375 112.281 20.9736 112.364 20.954C112.392 20.9473 112.408 20.8855 112.436 20.8788C112.501 20.863 112.593 20.8961 112.654 20.8788C112.843 20.8253 113.124 20.5529 113.306 20.5025C114.064 19.8613 114.429 18.9252 114.285 17.9062C114.281 17.8784 114.218 17.8603 114.213 17.831C114.187 17.6993 114.185 17.5059 114.14 17.3794C114.09 17.238 113.851 16.8037 113.778 16.7021C113.533 16.3635 113.166 16.1445 112.799 15.9872C112.73 15.9579 112.568 15.854 112.509 15.8367C112.449 15.8194 112.359 15.8503 112.291 15.8367C112.263 15.8307 112.246 15.7652 112.219 15.7615C112.017 15.7306 111.406 15.7306 111.204 15.7615Z" fill="#FDFDFD" />
  <path d="M0.75 8.53704L1.00375 8.31128H5.42625L5.68 8.57467V10.5313C5.5872 10.5697 5.61548 10.7112 5.6075 10.7194C5.59518 10.7322 5.5379 10.7029 5.49875 10.7194C5.46903 10.7322 5.45453 10.7841 5.42625 10.7947C5.38638 10.8097 5.3291 10.7819 5.28125 10.7947C5.25153 10.8022 5.23268 10.8699 5.20875 10.8699H3.215V13.09C3.215 13.1178 3.00113 13.2924 2.96125 13.3533H1.00375L0.75 13.1276V8.53704Z" fill="#FDFDFD" />
  <path d="M8.43502 28.6301C8.29727 28.6594 8.24144 28.5323 8.14502 28.442V26.3348C8.19359 26.301 8.30307 26.1467 8.32627 26.1467H10.5013C10.5092 26.1467 10.61 26.0421 10.61 26.0338V23.7762C10.61 23.7626 10.7782 23.588 10.7913 23.588H13.0025V18.8846C13.0025 18.8711 13.1301 18.7017 13.1475 18.6588C13.1642 18.6182 13.1352 18.5588 13.1475 18.546C13.1598 18.5332 13.2171 18.5625 13.2563 18.546C13.2882 18.5324 13.3063 18.4707 13.3288 18.4707H15.4675V13.7673C15.4675 13.7447 15.5255 13.7252 15.54 13.692C15.5502 13.6687 15.5306 13.6333 15.54 13.6168C15.5893 13.5302 15.73 13.4437 15.7938 13.3534H22.4638C22.5268 13.3963 22.8625 13.6273 22.8625 13.692V18.4707H25.0013C25.0172 18.4707 25.2289 18.616 25.255 18.6588C25.2644 18.6739 25.2441 18.71 25.255 18.7341C25.2695 18.7672 25.3275 18.7868 25.3275 18.8094V23.588H27.4663C27.4822 23.588 27.6939 23.7333 27.72 23.7762C27.7294 23.7912 27.7091 23.8273 27.72 23.8514C27.7345 23.8845 27.7925 23.9041 27.7925 23.9267V26.1467H30.0038C30.0168 26.1467 30.1669 26.3032 30.185 26.3348C30.1944 26.3514 30.1749 26.3867 30.185 26.4101C30.1995 26.4424 30.2517 26.4582 30.2575 26.4853C30.2909 26.6396 30.2909 28.1372 30.2575 28.2914C30.2416 28.3659 30.0763 28.5985 29.9675 28.6301H25.545L25.3275 28.442V26.1467H23.1888C23.167 26.1467 23.1482 26.0865 23.1163 26.0714C23.0938 26.0609 23.0597 26.0812 23.0438 26.0714C23.0133 26.0526 22.8625 25.8968 22.8625 25.8833V21.0294H15.4675V25.8833C15.4675 25.8968 15.3167 26.0526 15.2863 26.0714C15.2703 26.0812 15.2362 26.0609 15.2138 26.0714C15.1819 26.0865 15.163 26.1467 15.1413 26.1467H13.075V28.2162C13.075 28.2403 13.0127 28.2598 13.0025 28.2914C12.9887 28.3358 13.0156 28.3945 13.0025 28.442C12.9844 28.5067 12.7923 28.667 12.7125 28.6301H8.43502Z" fill="#FDFDFD" />
  <path d="M69.3351 13.8048C69.417 13.8033 69.4569 13.6905 69.5164 13.6543C69.9927 13.3631 70.3871 13.2961 70.8939 13.2028C70.9214 13.1975 70.9395 13.1313 70.9664 13.1275C71.165 13.102 71.5616 13.1057 71.7639 13.1275C71.79 13.1306 71.8088 13.1983 71.8364 13.2028C71.9487 13.2201 72.0879 13.184 72.1989 13.2028C72.6505 13.2803 73.6945 13.7913 74.0839 14.1059C74.1839 14.1864 74.463 14.5416 74.5189 14.5574C74.6363 14.5913 74.9662 14.1345 75.0989 14.0306C75.4208 13.78 76.2197 13.3887 76.6214 13.2781C77.5276 13.0275 78.6695 13.117 79.5214 13.5038C80.785 14.0065 81.779 15.1519 82.1676 16.4764C82.2329 16.6991 82.2024 16.9723 82.3126 17.1537V23.174L82.1314 23.3622H80.0289L79.8476 23.174V17.3794C79.7251 17.3102 79.8019 17.18 79.7751 17.0784C79.7686 17.0536 79.5902 16.6833 79.5576 16.6269C79.3894 16.3341 78.8928 15.8819 78.5789 15.7615C78.5383 15.7457 78.4803 15.775 78.4339 15.7615C78.4041 15.7524 78.3882 15.6915 78.3614 15.6862C78.2309 15.6621 78.0489 15.7148 77.9264 15.6862C77.8988 15.6794 77.8829 15.6192 77.8539 15.611C77.7582 15.5839 77.7379 15.6794 77.7089 15.6862C77.5863 15.7148 77.4044 15.6621 77.2739 15.6862C77.247 15.6915 77.2311 15.7524 77.2014 15.7615C77.0622 15.8029 76.9085 15.8284 76.7664 15.912C76.725 15.9361 76.5757 16.0414 76.5489 16.0625C76.3031 16.2544 76.1298 16.5283 76.0051 16.7774C75.9797 16.8286 75.8688 16.9693 75.8601 17.0032C75.8333 17.1048 75.9101 17.2349 75.7876 17.3042V23.0988C75.6999 23.1725 75.7166 23.2907 75.6064 23.3622H73.5039L73.3226 23.174V17.4547C73.2284 17.3215 73.2472 17.1845 73.1776 17.0032C73.0834 16.7578 73.0232 16.6766 72.8876 16.4764C72.876 16.4591 72.8985 16.4162 72.8876 16.4011C72.8253 16.3146 72.6447 16.1272 72.5614 16.0625C72.5469 16.0512 72.5055 16.0745 72.4889 16.0625C72.4367 16.0249 72.3924 15.9406 72.3439 15.912C72.2105 15.833 72.0488 15.8029 71.9089 15.7615C71.8791 15.7524 71.8632 15.6915 71.8364 15.6862C71.7269 15.6659 71.5833 15.7065 71.4739 15.6862C71.447 15.6809 71.4311 15.6207 71.4014 15.611C71.26 15.5666 71.2042 15.6824 71.1839 15.6862C71.0744 15.7065 70.9308 15.6659 70.8214 15.6862C70.7945 15.6915 70.7786 15.7524 70.7489 15.7615C70.6097 15.8029 70.456 15.8284 70.3139 15.912C70.1718 15.9955 69.8789 16.2536 69.7701 16.4011C69.7585 16.4169 69.7817 16.4598 69.7701 16.4764C69.7179 16.5486 69.4903 16.8173 69.4801 16.8527C69.433 17.0227 69.441 17.241 69.3351 17.3794V23.174L69.1539 23.3622H67.0514L66.8701 23.0988V13.6167L67.1239 13.3533H69.0814C69.2989 13.4782 69.3764 13.5219 69.3351 13.8048Z" fill="#FDFDFD" />
  <path d="M95.2537 13.3534C95.4183 13.3165 96.9778 13.3158 97.1387 13.3534C97.1648 13.3594 97.1801 13.4136 97.2112 13.4286C97.2337 13.4392 97.2678 13.4189 97.2837 13.4286C97.3447 13.4663 97.4012 13.5679 97.465 13.6168V19.4866C97.5781 19.5822 97.5643 19.8185 97.61 19.9382C97.6463 20.0315 97.9826 20.5003 98.0812 20.5778C98.2016 20.6719 98.6634 20.9887 98.8062 21.0294C98.8664 21.0467 98.9578 21.0143 99.0237 21.0294C99.052 21.0361 99.0694 21.1008 99.0963 21.1046C99.2507 21.1279 99.7459 21.1317 99.8937 21.1046C99.9213 21.0993 99.9372 21.0369 99.9662 21.0294C100.058 21.006 100.253 20.9857 100.329 20.9541C100.485 20.8886 100.983 20.5364 101.09 20.3897C101.102 20.3731 101.078 20.3295 101.09 20.3144C101.15 20.2354 101.257 20.1662 101.307 20.0887C101.318 20.0729 101.296 20.0337 101.307 20.0134C101.336 19.9622 101.444 19.82 101.452 19.7877C101.479 19.6861 101.402 19.5566 101.525 19.4866V13.6168L101.779 13.3534H103.736L103.99 13.5415V19.7877C103.88 20.0879 103.818 20.3919 103.7 20.6907C103.16 22.0543 102.216 22.9416 100.836 23.3622C98.8345 23.9726 96.6479 23.2321 95.58 21.2927C95.2726 20.8239 95.132 20.2776 95 19.7877V13.5415C95.0094 13.5069 95.2305 13.3586 95.2537 13.3534Z" fill="#FDFDFD" />
  <path d="M57.8075 13.4286C57.8155 13.4369 57.7872 13.5784 57.88 13.6168V19.4866C57.991 19.5469 57.9301 19.6492 57.9525 19.7124C57.9721 19.7673 58.1352 20.1098 58.17 20.1639C58.2295 20.2573 58.6964 20.7419 58.7863 20.8036C58.8102 20.8202 59.1974 21.0226 59.2213 21.0294C59.2815 21.0467 59.3728 21.0143 59.4388 21.0294C59.4671 21.0361 59.4845 21.1009 59.5113 21.1046C60.2928 21.2235 61.0642 20.9082 61.5775 20.3144C61.6203 20.1466 61.8045 19.9653 61.8675 19.7877C61.9306 19.6101 61.8987 19.3331 62.0125 19.1856V13.5415L62.2663 13.3534H64.1513C64.2035 13.4362 64.3789 13.4467 64.405 13.5415C64.4253 13.616 64.3688 13.7056 64.4775 13.7673C64.3847 15.535 64.6015 17.4337 64.4775 19.1856C64.4754 19.2127 64.4072 19.2338 64.405 19.2609C64.3659 19.6981 64.3818 19.9796 64.26 20.3897C63.8446 21.7887 62.6375 22.9928 61.2513 23.3623C60.1297 23.661 59.0553 23.6836 57.9888 23.1365C57.0405 22.7226 56.4076 22.0325 55.9225 21.1423C55.6383 20.6192 55.5521 20.1609 55.415 19.6372V13.6168C55.5078 13.5784 55.4796 13.4369 55.4875 13.4286C55.4955 13.4204 55.6318 13.4497 55.6688 13.3534H57.6263C57.6633 13.4497 57.7996 13.4204 57.8075 13.4286Z" fill="#FDFDFD" />
  <path d="M47.5849 16.6646C47.5987 16.6789 47.6596 16.645 47.6937 16.6646C47.7655 16.706 47.8372 16.8444 47.9112 16.8904C48.0381 16.9694 48.2599 16.9919 48.4187 17.0409C49.3365 17.3231 50.266 17.4721 51.1737 17.8687C51.8798 18.1765 52.2858 18.4233 52.6599 19.1104C52.7085 19.1999 52.8586 19.4159 52.8774 19.4866C52.8941 19.5491 52.8629 19.6439 52.8774 19.7124C52.884 19.7417 52.9463 19.7598 52.9499 19.7877C52.9826 20.0209 52.9826 20.7584 52.9499 20.9917C52.9463 21.0196 52.8832 21.0376 52.8774 21.067C52.8644 21.137 52.8941 21.2318 52.8774 21.2927C52.8245 21.4869 52.565 22.0257 52.4424 22.1958C52.2402 22.475 51.932 22.6661 51.6812 22.8355C51.6145 22.8806 51.4086 23.056 51.3912 23.0612C51.186 23.1222 51.0135 23.2501 50.8837 23.287C50.7873 23.3141 50.68 23.3389 50.5937 23.3623C50.2399 23.4571 49.9484 23.4638 49.5787 23.5128C48.9342 23.5978 48.1693 23.6294 47.4762 23.588C46.9948 23.5594 46.4228 23.4352 45.9537 23.3623C45.8413 23.3449 45.7007 23.3826 45.5912 23.3623C45.5644 23.357 45.5484 23.2968 45.5187 23.287C45.4759 23.2727 45.4194 23.3005 45.3737 23.287C45.1547 23.2215 45.175 22.5096 45.1924 22.2711C45.1946 22.244 45.2628 22.2229 45.2649 22.1958C45.2809 21.9715 45.2236 21.6337 45.2649 21.4433C45.2707 21.4162 45.3229 21.4004 45.3374 21.368C45.3476 21.3447 45.328 21.3093 45.3374 21.2927C45.4643 21.0715 45.721 21.0745 45.9537 21.1046C45.9805 21.1084 45.9986 21.1754 46.0262 21.1799C46.351 21.2303 46.7432 21.3025 47.0412 21.3304C47.6814 21.3898 48.8051 21.5012 49.4337 21.4056C49.4605 21.4019 49.4779 21.3364 49.5062 21.3304C49.694 21.2912 49.9238 21.28 50.0862 21.1799C50.1246 21.1558 50.4066 20.8645 50.4124 20.8412C50.4277 20.7833 50.4277 20.3724 50.4124 20.3144C50.4066 20.2911 50.1304 20.0059 50.0862 19.9758C49.9173 19.8599 49.6374 19.8125 49.4337 19.75C48.4644 19.4528 47.4958 19.2993 46.5337 18.847C45.9704 18.5821 45.3353 18.0583 45.1199 17.4548C45.1047 17.4111 45.1344 17.3502 45.1199 17.3043C45.1098 17.2734 45.0554 17.2583 45.0474 17.229C45.0308 17.168 45.0605 17.0732 45.0474 17.0032C45.0416 16.9739 44.9786 16.9558 44.9749 16.928C44.9452 16.718 44.9452 16.0844 44.9749 15.8744C44.9786 15.8466 45.0416 15.8285 45.0474 15.7992C45.1707 15.1602 45.2867 14.9623 45.6999 14.4446C46.09 13.9554 46.5279 13.7063 47.1137 13.5039C47.2007 13.4738 47.3972 13.3722 47.4762 13.3534C47.6857 13.303 47.9192 13.3112 48.1287 13.2781C49.0676 13.1314 50.1623 13.1976 51.1012 13.2781C51.3738 13.3015 51.8407 13.1938 52.0074 13.4663C52.0169 13.4813 51.9966 13.5174 52.0074 13.5415C52.0219 13.5739 52.0741 13.5904 52.0799 13.6168C52.1104 13.7598 52.1104 14.9759 52.0799 15.1219C52.0734 15.1512 51.9422 15.3567 51.8987 15.3853C51.8842 15.395 51.8494 15.374 51.8262 15.3853C51.795 15.4003 51.7791 15.4545 51.7537 15.4605C51.6689 15.4801 51.4166 15.4733 51.3187 15.4605C51.2919 15.4567 51.2723 15.3875 51.2462 15.3853C50.3472 15.298 49.3315 15.45 48.4187 15.3853C48.3513 15.5124 48.2266 15.4327 48.1287 15.4605C48.1011 15.468 48.0859 15.5245 48.0562 15.5358C47.8844 15.6005 47.6828 15.7036 47.5849 15.8744C47.5755 15.891 47.5951 15.9263 47.5849 15.9497C47.5704 15.982 47.5182 15.9978 47.5124 16.0249C47.495 16.1047 47.4979 16.3899 47.5124 16.4764C47.5168 16.5028 47.5719 16.5193 47.5849 16.5517C47.6009 16.5923 47.5726 16.6518 47.5849 16.6646Z" fill="#FDFDFD" />
  <path d="M91.5198 15.3852C91.4038 15.3439 91.3668 15.4552 91.3385 15.4605C91.2385 15.4786 91.0094 15.474 90.9035 15.4605C90.8767 15.4567 90.8571 15.3875 90.831 15.3852C89.9096 15.2957 88.867 15.4515 87.931 15.3852C87.8448 15.4567 87.7411 15.4891 87.641 15.5358C87.5954 15.5568 87.454 15.5899 87.4235 15.611C87.3133 15.687 87.2097 15.8601 87.0973 15.9497C87.1343 16.0941 86.9835 16.1875 87.0248 16.3259C87.0335 16.356 87.0879 16.3711 87.0973 16.4012C87.1111 16.4456 87.0842 16.5043 87.0973 16.5517C87.1024 16.5698 87.3133 16.7887 87.351 16.8151C87.5279 16.937 87.794 16.9724 88.0035 17.0408C88.9105 17.3374 89.8574 17.4751 90.7585 17.8687C91.1645 18.0455 91.7706 18.3781 92.0273 18.7341C92.1005 18.8357 92.3398 19.2699 92.3898 19.4114C92.4347 19.5378 92.4369 19.7312 92.4623 19.8629C92.4681 19.8922 92.5312 19.9103 92.5348 19.9382C92.6428 20.7065 92.4217 21.3883 92.0998 22.0453C91.6641 22.5307 91.2059 22.9679 90.6135 23.2117C90.3098 23.3367 89.9755 23.3811 89.671 23.4375C88.8424 23.5903 87.9738 23.6384 87.061 23.588C86.5543 23.5602 85.9576 23.439 85.466 23.3622C85.3537 23.3449 85.2058 23.3856 85.1035 23.3622C85.0774 23.3562 85.0622 23.302 85.031 23.287C85.0086 23.2765 84.9745 23.2968 84.9585 23.287C84.9303 23.2697 84.7809 23.1116 84.7773 23.0989C84.7381 22.9521 84.757 22.0242 84.7773 21.8195C84.7802 21.7924 84.8454 21.7729 84.8498 21.7443C84.8665 21.6269 84.8309 21.4824 84.8498 21.368C84.8549 21.3386 84.9622 21.3003 84.9223 21.1799C85.0383 21.2212 85.0753 21.1099 85.1035 21.1046C85.2036 21.0865 85.4327 21.0911 85.5385 21.1046C85.5654 21.1084 85.5835 21.1753 85.611 21.1799C86.5028 21.3191 88.018 21.5245 88.946 21.4056C88.9729 21.4019 88.991 21.3356 89.0185 21.3304C89.1824 21.3003 89.2041 21.3281 89.381 21.2551C89.5579 21.1821 89.8276 21.0858 89.9248 20.9165C89.9342 20.8999 89.9146 20.8645 89.9248 20.8412C89.9393 20.8089 89.9915 20.793 89.9973 20.766C90.0118 20.7005 90.0118 20.4552 89.9973 20.3897C89.9915 20.3626 89.9393 20.3468 89.9248 20.3144C89.9146 20.2911 89.9342 20.2557 89.9248 20.2392C89.8349 20.0826 89.629 20.0473 89.526 19.9005C89.2998 19.8734 89.0787 19.7297 88.8735 19.6748C87.5258 19.312 85.8358 19.1924 84.9223 17.831C84.8607 17.7392 84.749 17.6444 84.7048 17.53C84.6743 17.451 84.6548 17.2493 84.6323 17.1537C84.625 17.1236 84.5649 17.1071 84.5598 17.0785C84.533 16.9212 84.5866 16.709 84.5598 16.5517C84.5547 16.5239 84.4967 16.5073 84.4873 16.4764C84.4445 16.3297 84.5562 16.2717 84.5598 16.2507C84.5866 16.0934 84.533 15.8812 84.5598 15.7239C84.5649 15.6953 84.625 15.6787 84.6323 15.6486C84.8331 14.8065 85.2137 14.3068 85.901 13.8802C86.3795 13.5837 86.6891 13.4647 87.206 13.3534C87.3133 13.33 87.6207 13.2126 87.7135 13.2029C88.461 13.1231 89.7725 13.1539 90.541 13.2029C90.5664 13.2044 90.5874 13.2759 90.6135 13.2781C90.9586 13.3045 91.3385 13.1743 91.5923 13.4663C91.5321 13.9915 91.6742 14.6982 91.5923 15.1971C91.5872 15.2265 91.4799 15.2648 91.5198 15.3852Z" fill="#FDFDFD" />
  <path d="M27.7926 15.9121H25.5814C25.5589 15.9121 25.5408 15.8503 25.5089 15.8368C25.4697 15.8202 25.4125 15.8496 25.4001 15.8368C25.3922 15.8285 25.4204 15.687 25.3276 15.6487V13.692C25.4175 13.522 25.4734 13.4512 25.6539 13.3534H32.3239C32.3833 13.4663 32.4703 13.4076 32.5414 13.4286C32.6335 13.4565 32.6429 13.6386 32.7226 13.692V18.1321C32.6385 18.2457 32.5979 18.3751 32.4689 18.4707H27.9739C27.9413 18.4203 27.7926 18.3067 27.7926 18.2826V15.9121Z" fill="#FDFDFD" />
  <path d="M10.6102 15.9121V18.1321C10.6102 18.1682 10.4282 18.4165 10.3564 18.4707H5.93393C5.89695 18.3744 5.76065 18.4037 5.75268 18.3955C5.7447 18.3872 5.77298 18.2457 5.68018 18.2073V13.6168C5.77225 13.4828 5.89695 13.4407 6.00643 13.3534H12.6764C12.8715 13.4603 12.9722 13.5649 13.0752 13.7673V15.5734C13.0244 15.6216 12.8932 15.9121 12.8214 15.9121H10.6102Z" fill="#FDFDFD" />
  <path d="M32.9039 10.7947C32.8916 10.7909 32.7263 10.6193 32.7227 10.6065V8.49942L32.9039 8.31128H37.3989L37.5802 8.49942V13.1652L37.3989 13.3533H35.3689C35.3363 13.3029 35.1877 13.1893 35.1877 13.1652V10.9076C35.1877 10.8993 35.0869 10.7947 35.0789 10.7947H32.9039Z" fill="#FDFDFD" />
  <path d="M30.4386 23.588H32.4686C32.5976 23.6836 32.6382 23.813 32.7223 23.9267V25.808C32.6281 25.9954 32.5599 26.0534 32.3961 26.1467H30.5836C30.4741 26.0594 30.3494 26.0172 30.2573 25.8833V23.7761L30.4386 23.588Z" fill="#FDFDFD" />
  <path d="M5.93393 23.588H7.89143C8.02048 23.6836 8.06108 23.813 8.14518 23.9267V25.808C8.05093 25.9954 7.98278 26.0534 7.81893 26.1467H6.00643C5.89695 26.0594 5.77225 26.0172 5.68018 25.8833V23.7761L5.93393 23.588Z" fill="#FDFDFD" />
  <path d="M22.6449 0.635254L22.8624 0.898645V3.19391H25.0736C25.0917 3.19391 25.3274 3.43849 25.3274 3.4573V5.75257H27.5386C27.5654 5.75257 27.7336 5.97457 27.7924 6.01596V7.97258C27.7126 8.02677 27.7025 8.20888 27.6111 8.23597C27.5393 8.25705 27.4531 8.19835 27.3936 8.31123H10.9361C10.8266 8.22393 10.7019 8.18179 10.6099 8.04784V5.94071C10.6584 5.90684 10.7679 5.75257 10.7911 5.75257H13.0024V3.60781C13.0024 3.58373 13.0647 3.56417 13.0749 3.53256C13.0886 3.48816 13.0618 3.42946 13.0749 3.38205C13.0785 3.36926 13.2431 3.19391 13.2561 3.19391H15.4674V0.9739L15.7574 0.635254H22.6449Z" fill="#2CD3AB" />
</svg>
