<svg width="27" height="26" viewBox="0 0 27 26" fill="none" xmlns="http://www.w3.org/2000/svg">
    <rect opacity="0.5" x="1.27878" y="0.627579" width="25" height="24.7199" rx="2.50287" stroke="#47BEFF" />
    <path d="M21.2788 12.1542V9.65422C21.2788 9.21219 21.1032 8.78826 20.7906 8.4757C20.4781 8.16314 20.0541 7.98755 19.6121 7.98755H14.6121M14.6121 7.98755L17.1121 10.4875M14.6121 7.98755L17.1121 5.48755M6.27878 13.8209V16.3209C6.27878 16.7629 6.45437 17.1868 6.76693 17.4994C7.07949 17.812 7.50342 17.9875 7.94544 17.9875H12.9454M12.9454 17.9875L10.4454 15.4875M12.9454 17.9875L10.4454 20.4875M6.27878 7.98755C6.27878 8.65059 6.54217 9.28648 7.01101 9.75532C7.47985 10.2242 8.11574 10.4875 8.77878 10.4875C9.44182 10.4875 10.0777 10.2242 10.5465 9.75532C11.0154 9.28648 11.2788 8.65059 11.2788 7.98755C11.2788 7.32451 11.0154 6.68862 10.5465 6.21978C10.0777 5.75094 9.44182 5.48755 8.77878 5.48755C8.11574 5.48755 7.47985 5.75094 7.01101 6.21978C6.54217 6.68862 6.27878 7.32451 6.27878 7.98755ZM16.2788 17.9875C16.2788 18.6506 16.5422 19.2865 17.011 19.7553C17.4799 20.2242 18.1157 20.4875 18.7788 20.4875C19.4418 20.4875 20.0777 20.2242 20.5465 19.7553C21.0154 19.2865 21.2788 18.6506 21.2788 17.9875C21.2788 17.3245 21.0154 16.6886 20.5465 16.2198C20.0777 15.7509 19.4418 15.4875 18.7788 15.4875C18.1157 15.4875 17.4799 15.7509 17.011 16.2198C16.5422 16.6886 16.2788 17.3245 16.2788 17.9875Z" stroke="#47BEFF" stroke-width="1.5" stroke-linecap="round" stroke-linejoin="round" />
</svg>
