<svg width="25" height="24" viewBox="0 0 25 24" fill="none" xmlns="http://www.w3.org/2000/svg">
  <path d="M3.76904 11L3.76904 8C3.76904 7.46957 3.97976 6.96086 4.35483 6.58578C4.7299 6.21071 5.23861 6 5.76904 6L11.769 6M11.769 6L8.76904 9M11.769 6L8.76904 3M21.769 13L21.769 16C21.769 16.5304 21.5583 17.0391 21.1833 17.4142C20.8082 17.7893 20.2995 18 19.769 18L13.769 18M13.769 18L16.769 15M13.769 18L16.769 21M21.769 4C21.769 3.73478 21.6637 3.48043 21.4761 3.29289C21.2886 3.10536 21.0343 3 20.769 3L16.769 3C16.5038 3 16.2495 3.10536 16.0619 3.29289C15.8744 3.48043 15.769 3.73478 15.769 4L15.769 8C15.769 8.26522 15.8744 8.51957 16.0619 8.70711C16.2495 8.89464 16.5038 9 16.769 9L20.769 9C21.0343 9 21.2886 8.89464 21.4761 8.70711C21.6637 8.51957 21.769 8.26522 21.769 8L21.769 4ZM9.76904 16C9.76904 15.7348 9.66368 15.4804 9.47615 15.2929C9.28861 15.1054 9.03426 15 8.76904 15L4.76904 15C4.50383 15 4.24947 15.1054 4.06193 15.2929C3.8744 15.4804 3.76904 15.7348 3.76904 16L3.76904 20C3.76904 20.2652 3.8744 20.5196 4.06193 20.7071C4.24947 20.8946 4.50382 21 4.76904 21L8.76904 21C9.03426 21 9.28861 20.8946 9.47615 20.7071C9.66368 20.5196 9.76904 20.2652 9.76904 20L9.76904 16Z" stroke="currentColor" stroke-width="1.5" stroke-linecap="round" stroke-linejoin="round" />
</svg>
