<svg width="81" height="20" viewBox="0 0 81 20" fill="none" xmlns="http://www.w3.org/2000/svg">
  <path d="M3.03334 0H0V8.56322C0 8.94253 0.364001 10.1356 0.522168 10.5379C2.37142 15.2598 9.50411 15.4276 11.7185 10.9966C11.9806 10.4713 12.4584 9.11724 12.4584 8.56322V0H9.42503V8.33333C9.42503 9.78736 7.52919 11.1552 6.22919 11.1586C4.89668 11.1621 3.03334 9.83793 3.03334 8.33333V0ZM33.0418 0H30.1168V20H33.0418V0ZM39.5418 0H36.5084V4.08046L36.6709 4.25287H39.5418V0ZM69.2252 0H66.1919V4.25287H69.0627L69.2252 4.08046V0ZM75.7252 0H72.6919V17.069C72.6919 18.2126 74.1457 20 75.2377 20H80.9253V16.8966H76.3211C76.1965 16.8966 75.7252 16.3184 75.7252 16.2644V9.31035H80.8711L81 9.08276L80.9253 6.2069H75.7252V0ZM26.6501 20V11.7816C26.6501 6.61149 20.7134 4.40345 16.8676 6.8046C12.7899 9.34943 14.4246 15.8299 14.0834 20H17.1167V12.1264C17.1167 9.34598 20.5639 7.87586 22.5345 9.71149C22.9657 10.1126 23.6167 11.3207 23.6167 11.8966V20H26.6501ZM62.7252 20V11.5517C62.7252 10.7851 62.3612 9.42644 62.0254 8.73104C60.3765 5.31379 55.4148 4.94138 52.9047 7.46207C50.2495 4.87471 45.0982 5.33678 43.5729 9.04828C43.3876 9.49885 43.0074 10.877 43.0074 11.3218V20H46.0407V11.4368C46.0407 11.0644 46.5315 10.0012 46.7947 9.70805C47.5888 8.82184 49.3297 8.69081 50.2592 9.37586C50.6915 9.69425 51.3502 10.7885 51.3502 11.3218V20H54.3835V11.2069C54.3835 11.1057 54.7811 10.1563 54.8786 10.008C55.7149 8.72414 57.8762 8.54598 58.8837 9.65172C59.1458 9.93908 59.6919 11.0759 59.6919 11.4379V20.0012H62.7252V20ZM39.5418 6.2069H36.5084V20H39.5418V6.2069ZM69.2252 6.2069H66.1919V20H69.2252V6.2069Z" fill="#FDFDFD" />
  <path d="M62.7251 20H59.6918V11.4367C59.6918 11.0758 59.1447 9.93904 58.8836 9.65053C57.8772 8.54593 55.7149 8.7241 54.8785 10.0069C54.781 10.1563 54.3834 11.1046 54.3834 11.2057V19.9988H51.3501V11.3206C51.3501 10.7862 50.6914 9.69306 50.2592 9.37467C49.3297 8.68961 47.5888 8.82065 46.7947 9.70685C46.5325 9.99996 46.0407 11.0643 46.0407 11.4356V19.9988H43.0073V11.3206C43.0073 10.8747 43.3876 9.49766 43.5728 9.04708C45.0982 5.33559 50.2483 4.87352 52.9047 7.46088C55.4137 4.94019 60.3765 5.3126 62.0253 8.72984C62.3611 9.42524 62.7251 10.785 62.7251 11.5505V19.9988V20Z" fill="#FDFDFD" />
  <path d="M3.03334 0V8.33333C3.03334 9.83793 4.89668 11.1621 6.22919 11.1586C7.52919 11.1552 9.42503 9.78736 9.42503 8.33333V0H12.4584V8.56322C12.4584 9.11724 11.9806 10.4713 11.7185 10.9966C9.50411 15.4276 2.37142 15.2598 0.522168 10.5379C0.364001 10.1356 0 8.94253 0 8.56322V0H3.03334Z" fill="#FDFDFD" />
  <path d="M26.6503 20H23.617V11.8966C23.617 11.3207 22.9659 10.1127 22.5347 9.71154C20.5641 7.87591 17.1169 9.34603 17.1169 12.1265V20H14.0836C14.4249 15.8288 12.7901 9.34947 16.8678 6.80465C20.7136 4.4035 26.6503 6.61269 26.6503 11.7817V20Z" fill="#FDFDFD" />
  <path d="M75.7252 0V6.2069H80.9253L81 9.08276L80.8711 9.31034H75.7252V16.2644C75.7252 16.3184 76.1965 16.8966 76.3211 16.8966H80.9253V20H75.2377C74.1457 20 72.6919 18.2126 72.6919 17.069V0H75.7252Z" fill="#FDFDFD" />
  <path d="M33.0417 0H30.1167V20H33.0417V0Z" fill="#FDFDFD" />
  <path d="M39.5416 6.20691H36.5083V20H39.5416V6.20691Z" fill="#FDFDFD" />
  <path d="M69.2252 6.20691H66.1919V20H69.2252V6.20691Z" fill="#FDFDFD" />
  <path d="M39.5416 0V4.25287H36.6708L36.5083 4.08046V0H39.5416Z" fill="#FDFDFD" />
  <path d="M69.2252 0V4.08046L69.0627 4.25287H66.1919V0H69.2252Z" fill="#FDFDFD" />
</svg>
