<svg width="19" height="24" viewBox="0 0 19 24" fill="#C7C7C7" xmlns="http://www.w3.org/2000/svg">
<path d="M9.09091 18.2857C8.48814 18.2857 7.91007 18.0449 7.48385 17.6162C7.05763 17.1876 6.81818 16.6062 6.81818 16C6.81818 14.7314 7.82955 13.7143 9.09091 13.7143C9.69367 13.7143 10.2718 13.9551 10.698 14.3838C11.1242 14.8124 11.3636 15.3938 11.3636 16C11.3636 16.6062 11.1242 17.1876 10.698 17.6162C10.2718 18.0449 9.69367 18.2857 9.09091 18.2857ZM15.9091 21.7143V10.2857H2.27273V21.7143H15.9091ZM15.9091 8C16.5119 8 17.0899 8.24082 17.5162 8.66947C17.9424 9.09813 18.1818 9.67951 18.1818 10.2857V21.7143C18.1818 22.3205 17.9424 22.9019 17.5162 23.3305C17.0899 23.7592 16.5119 24 15.9091 24H2.27273C1.66996 24 1.09189 23.7592 0.665666 23.3305C0.239447 22.9019 0 22.3205 0 21.7143V10.2857C0 9.01714 1.01136 8 2.27273 8H3.40909V5.71429C3.40909 4.19876 4.00771 2.74531 5.07326 1.67368C6.1388 0.602039 7.584 0 9.09091 0C9.83706 0 10.5759 0.147804 11.2652 0.434974C11.9546 0.722144 12.581 1.14306 13.1086 1.67368C13.6362 2.2043 14.0547 2.83423 14.3402 3.52752C14.6258 4.22081 14.7727 4.96388 14.7727 5.71429V8H15.9091ZM9.09091 2.28571C8.18676 2.28571 7.31965 2.64694 6.68032 3.28992C6.04099 3.9329 5.68182 4.80497 5.68182 5.71429V8H12.5V5.71429C12.5 4.80497 12.1408 3.9329 11.5015 3.28992C10.8622 2.64694 9.99506 2.28571 9.09091 2.28571Z"/>
</svg>
