<svg width="34" height="34" viewBox="0 0 34 34" fill="none" xmlns="http://www.w3.org/2000/svg">
    <path d="M20.3331 15.6727L17.9537 22.2013C17.8947 22.3783 17.8947 22.5749 17.9537 22.7716L22.044 34L26.7831 31.2666L21.1001 15.6727C20.9624 15.3187 20.4708 15.3187 20.3331 15.6727Z" fill="white" />
    <path d="M25.1115 4.69981C24.9739 4.34585 24.4823 4.34585 24.3446 4.69981L21.9652 11.2284C21.9062 11.4054 21.9062 11.6021 21.9652 11.7987L28.6708 30.1851L33.41 27.4517L25.1115 4.71948V4.69981Z" fill="white" />
    <path d="M15.1614 0.0196645H10.5795C10.2452 0.0196645 9.93059 0.235974 9.8126 0.550607L0 27.4517L4.73915 30.1851L15.5547 0.550607C15.653 0.275304 15.4563 0 15.181 0L15.1614 0.0196645Z" fill="white" />
    <path d="M23.1846 0.0196645H18.6028C18.2685 0.0196645 17.9538 0.235974 17.8359 0.550607L6.62706 31.2666L11.3662 34L23.5582 0.550607C23.6566 0.275304 23.4599 0 23.1846 0V0.0196645Z" fill="white" />
</svg>
