<svg width="34" height="27" viewBox="0 0 34 27" fill="none" xmlns="http://www.w3.org/2000/svg">
<g clip-path="url(#clip0_11_29)">
<path d="M5.52277 20.6073C5.72795 20.3994 6.01007 20.2781 6.30929 20.2781H33.4443C33.9402 20.2781 34.1881 20.8845 33.8376 21.2396L28.4773 26.6708C28.2721 26.8787 27.99 27 27.6907 27H0.55571C0.0598585 27 -0.188067 26.3936 0.162448 26.0385L5.52277 20.6073Z" fill="white"/>
<path d="M5.52277 0.329163C5.7365 0.12127 6.01862 0 6.30929 0H33.4443C33.9402 0 34.1881 0.606352 33.8376 0.961501L28.4773 6.39269C28.2721 6.60058 27.99 6.72185 27.6907 6.72185H0.55571C0.0598585 6.72185 -0.188067 6.1155 0.162448 5.76035L5.52277 0.329163Z" fill="white"/>
<path d="M28.4773 10.4033C28.2721 10.1954 27.99 10.0741 27.6907 10.0741H0.55571C0.0598585 10.0741 -0.188067 10.6804 0.162448 11.0356L5.52277 16.4668C5.72795 16.6747 6.01007 16.7959 6.30929 16.7959H33.4443C33.9402 16.7959 34.1881 16.1896 33.8376 15.8344L28.4773 10.4033Z" fill="white"/>
</g>
<defs>
<clipPath id="clip0_11_29">
<rect width="34" height="27" fill="white"/>
</clipPath>
</defs>
</svg>
