<svg id="LRBCircular_svg__Layer_1" xmlns="http://www.w3.org/2000/svg" xmlns:xlink="http://www.w3.org/1999/xlink" x="0" y="0" class="" viewBox="0 0 251.4 251.4" xml:space="preserve"><style></style><linearGradient id="LRBCircular_svg__SVGID_1_" gradientUnits="userSpaceOnUse" x1="51.74" y1="225.76" x2="200.83" y2="29.3" gradientTransform="matrix(1 0 0 -1 0 254)"><stop offset="0" stop-color="#00abee"></stop><stop offset="0" stop-color="#00b3ee"></stop><stop offset="1" stop-color="#009fee"></stop></linearGradient><circle cx="125.7" cy="125.7" r="125.7" fill="url(#LRBCircular_svg__SVGID_1_)"></circle><g id="LRBCircular_svg__g323"><path id="LRBCircular_svg__path263" d="M136.8 105.3c0-2 1.6-3.6 3.6-3.6 1.7 0 3.1 1.2 3.5 2.8.1.3.1.5.1.8 0 1.8-1.3 3.2-3 3.5h-.5c-2.1.1-3.7-1.5-3.7-3.5m-34.2-63.1l-.6 3.6h12.7c0 .9-.4 1.7-.9 2.3-.6.6-1.4.9-2.3.9h-10.1l-4 22.9h10.5c0 .9-.4 1.7-.9 2.3-.6.6-1.4.9-2.3.9h-7.9l-4 22.9h8.4c0 .9-.4 1.7-.9 2.3-.6.6-1.4.9-2.3.9h-5.7l-4 22.9h6.2c0 .9-.4 1.7-.9 2.3-.6.6-1.4.9-2.3.9h-3.5l-4.1 23h4c0 .9-.4 1.7-.9 2.3-.6.6-1.4.9-2.3.9h-1.3c-.3.4-.3 1.7-.4 2.3-.2.9-.3 1.9-.5 2.8-.3 1.9-.7 3.7-1.1 5.6-.8 3.6-1.8 7.1-2.8 10.7-2.7 10.1-.6 20.3 5.8 28.5 6.3 8.3 16 13 26.4 13h31.5c12.7 0 24.1-7 29.8-18.3 3.4-6.7 4.4-14.4 2.9-21.7-1-4.8-3.1-9.2-5.9-13.1-2.8-4-6.1-7.5-9.5-10.9l-16.9-16.9c-1-1-2.1-1.9-2.9-3-.2-.3-.3-.5-.4-.8-.2-1.2 1.7-1.9 2.6-2.3 1.1-.4 2.2-1 3.2-1.6 2-1.3 3.7-3 5-5 .8-1.1 1.2-2.3 1.8-3.6l.2-.3s.1-.2 0-.2c.1-.2.2-.4.2-.6.2-.7.3-1.4.5-2.1v-.1c-7.5-6.1-4.6-12.8-4-13.9-.1-.1-.2-.1-.2-.2l-.3-.4-.7-.7c-.1-.1-.2-.2-.3-.2-.3-.3-.7-.6-1.1-.9 0 0-.1 0-.1-.1-3-2.2-6.8-3.5-10.9-3.3-.4 0-.8 0-1.2.1-5.5.6-10.4 4-13 8.8-5.1 9.4-2 21.3 3.9 29.5 2.7 3.8 6 7 9.2 10.2 3.6 3.6 7.3 7.2 11 10.8l4.3 4.3-.1.1c.1 0 6.3 8.6 6.8 9.2 3.4 5 6.3 9.4 5.5 15.9-.3 2.2-.9 4.4-2 6.4-3.3 6.6-9.7 10.5-17 10.5H111c-6 0-11.4-2.7-15.1-7.4-3.6-4.7-4.8-10.7-3.3-16.5 1.8-6.9 3.7-13.4 5.1-20.4.9-4.4 1.7-8.7 2.6-13.1 1.1-5.8 2.3-11.6 3.4-17.4 1.3-6.7 2.6-13.3 3.9-20 1.4-7 2.8-14 4.1-21 1.3-6.8 2.6-13.5 4-20.3 1.2-6 2.3-11.9 3.5-17.9.9-4.6 1.8-9.3 2.7-13.9.5-2.7 1.1-5.5 1.6-8.2 0-.1.3-1.5.3-1.5-10.8.6-19.4 7.9-21.2 17.8" fill="#fff"></path><g id="LRBCircular_svg__g291"><defs><path id="LRBCircular_svg__SVGID_00000098202010138590619280000011771329503878459536_" d="M159.7 97.9c-2.1 0-4.2.8-6 1.9-.6.4-1.3.8-1.9 1.2-.9.6-1.5 1-2.2 1.3-.2 0-.8.3-1.1.4l-.2-.2c-.5 1.1-3.4 7.7 4 13.9v-.3c.9-.4 1.9-.7 2.9-.9.6-.1 1.3-.2 2-.2l6.9-.3c1 0 1.9.2 2.9.3l-.4-.4-1.5-1.2c-.3-.2-.5-.3-.8-.5-1.5-.8-3.1-1.4-4.8-1.8-.2 0-.4-.1-.6-.1-.3-.1-.6-.1-.9-.2-1.8-.3-3.6-.3-5.4-.3h-1.5l.9-1.2c.7-.9 1.4-1.7 2.3-2.5 1.9-1.8 4.2-3.2 6.6-4.3 2.4-1.1 5-1.7 7.5-1.9-2.2-2-5.8-2.7-8.7-2.7.1 0 0 0 0 0"></path></defs><use xlink:href="#LRBCircular_svg__SVGID_00000098202010138590619280000011771329503878459536_" overflow="visible" fill="#fff"></use><clipPath id="LRBCircular_svg__SVGID_00000142136557728184023520000007705921091133659316_"><use xlink:href="#LRBCircular_svg__SVGID_00000098202010138590619280000011771329503878459536_" overflow="visible"></use></clipPath><path id="LRBCircular_svg__polygon289" clip-path="url(#LRBCircular_svg__SVGID_00000142136557728184023520000007705921091133659316_)" fill="#fff" d="M135.6 108.4L155 86.3l22.4 19.6-19.2 22.1z"></path></g></g></svg>